# File created by Blade
# Date/Time:  Wed Sep 24 20:15:16 2014
# Frame Rate: 120.000 fps
#------------------------------------------------------
:FULLY-SPECIFIED
:DEGREES
2496
root -6.104005 32.770405 -5.370174 16.027421 1.512565 -2.439947
Spine -19.729669 1.018536 0.325537
Head -8.549452 -28.724371 15.515207
LeftShoulder -4.945654 18.024985 11.223386
LeftArm 22.583744 30.339142 -73.848353
LeftForeArm -2.527262 0.000000 20.833120
LeftHand -22.109007 0.000000 -2.309331
LeftHandThumb1 -26.253704 0.000000 33.147579
RightShoulder -16.204645 16.290835 -10.968538
RightArm -21.811577 37.177135 76.121373
RightForeArm 48.925035 -0.000000 44.956841
RightHand -2.561682 -0.000000 -31.438028
RightHandThumb1 -24.326973 -0.000000 -32.862282
LeftUpLeg -13.434911 7.459266 4.531324
LeftLeg 0.899494 -0.000000 -0.000000
LeftFoot -12.448642 7.968464 -18.296099
LeftToeBase 9.707054 -0.000000 -0.000000
RightUpLeg -14.484883 -5.682441 -0.540539
RightLeg 3.623171 -0.000000 -0.000000
RightFoot -8.374409 -1.962768 -12.862115
RightToeBase -0.097974 -0.000000 0.000000
2497
root -6.104030 32.770356 -5.369725 16.023342 1.501893 -2.439270
Spine -19.729710 1.002838 0.304080
Head -8.562358 -28.681677 15.526227
LeftShoulder -4.951883 18.017141 11.223808
LeftArm 22.591976 30.322357 -73.880117
LeftForeArm -2.545158 -0.000000 20.757931
LeftHand -22.122034 0.000000 -2.401842
LeftHandThumb1 -26.253704 0.000000 33.147579
RightShoulder -16.222453 16.268713 -10.963962
RightArm -21.756464 37.202915 76.142328
RightForeArm 49.029729 -0.000000 45.687144
RightHand -2.556520 -0.000000 -31.808556
RightHandThumb1 -24.326973 -0.000000 -32.862282
LeftUpLeg -13.430082 7.458978 4.532457
LeftLeg 0.902380 -0.000000 -0.000000
LeftFoot -12.445010 7.987065 -18.265938
LeftToeBase 9.685183 -0.000000 -0.000000
RightUpLeg -14.479557 -5.671907 -0.544231
RightLeg 3.622729 -0.000000 -0.000000
RightFoot -8.358104 -1.981813 -12.899427
RightToeBase -0.192763 -0.000000 0.000000
2498
root -6.104437 32.770170 -5.369515 16.020044 1.502236 -2.438194
Spine -19.731185 0.987269 0.289829
Head -8.563551 -28.668573 15.518319
LeftShoulder -4.947763 18.026251 11.217038
LeftArm 22.583866 30.325663 -73.897664
LeftForeArm -2.528872 -0.000000 20.750402
LeftHand -22.106848 -0.000000 -2.419015
LeftHandThumb1 -26.253704 0.000000 33.147579
RightShoulder -16.234082 16.239940 -10.975908
RightArm -21.773766 37.272409 76.142082
RightForeArm 48.802521 -0.000000 46.397375
RightHand -2.606736 -0.000000 -31.184627
RightHandThumb1 -24.326973 -0.000000 -32.862282
LeftUpLeg -13.424731 7.435900 4.540328
LeftLeg 0.904654 -0.000000 -0.000000
LeftFoot -12.436094 7.983289 -18.424827
LeftToeBase 9.557385 -0.000000 -0.000000
RightUpLeg -14.472214 -5.683182 -0.543184
RightLeg 3.615136 -0.000000 -0.000000
RightFoot -8.361969 -1.974846 -12.908959
RightToeBase -0.140621 -0.000000 0.000000
2499
root -6.103783 32.770183 -5.369237 16.018260 1.487018 -2.431402
Spine -19.734944 0.975199 0.267196
Head -8.564560 -28.645589 15.505328
LeftShoulder -4.966824 18.043003 11.198871
LeftArm 22.580903 30.361862 -73.891920
LeftForeArm -2.547651 0.000000 20.764732
LeftHand -22.110589 -0.000000 -2.354521
LeftHandThumb1 -26.253704 0.000000 33.147579
RightShoulder -16.244244 16.243323 -10.957350
RightArm -21.771183 37.330895 76.098251
RightForeArm 48.701806 -0.000000 47.074710
RightHand -2.597536 -0.000000 -31.477435
RightHandThumb1 -24.326973 -0.000000 -32.862282
LeftUpLeg -13.420386 7.434236 4.530019
LeftLeg 0.903397 -0.000000 -0.000000
LeftFoot -12.459504 8.012062 -18.277311
LeftToeBase 9.666645 -0.000000 -0.000000
RightUpLeg -14.471252 -5.669090 -0.553797
RightLeg 3.615283 -0.000000 -0.000000
RightFoot -8.382233 -1.966925 -12.883747
RightToeBase -0.083007 -0.000000 0.000000
2500
root -6.105271 32.770100 -5.369954 16.021345 1.480705 -2.437438
Spine -19.744575 0.968425 0.256383
Head -8.570116 -28.642912 15.491412
LeftShoulder -4.951326 18.054334 11.198399
LeftArm 22.569523 30.380283 -73.900219
LeftForeArm -2.547678 0.000000 20.765429
LeftHand -22.111156 0.000000 -2.342585
LeftHandThumb1 -26.253704 0.000000 33.147579
RightShoulder -16.250189 16.226010 -10.962336
RightArm -21.806200 37.458949 76.071757
RightForeArm 48.609861 -0.000000 47.817411
RightHand -2.659882 -0.000000 -31.176615
RightHandThumb1 -24.326973 -0.000000 -32.862282
LeftUpLeg -13.426793 7.433558 4.541981
LeftLeg 0.916120 -0.000000 -0.000000
LeftFoot -12.446978 7.994450 -18.444774
LeftToeBase 9.571917 -0.000000 -0.000000
RightUpLeg -14.475781 -5.727829 -0.532372
RightLeg 3.609377 -0.000000 -0.000000
RightFoot -8.375355 -1.917614 -12.942954
RightToeBase -0.139850 -0.000000 0.000000
2501
root -6.107087 32.770198 -5.371786 16.022731 1.482079 -2.437442
Spine -19.743180 0.937050 0.237210
Head -8.574763 -28.632525 15.507003
LeftShoulder -4.964554 18.042194 11.220836
LeftArm 22.551288 30.451513 -73.928140
LeftForeArm -2.213058 0.000000 20.727311
LeftHand -22.350045 -0.000000 -3.794802
LeftHandThumb1 -26.253704 0.000000 33.147579
RightShoulder -16.243460 16.228252 -10.947399
RightArm -21.848189 37.588243 76.024252
RightForeArm 48.528300 -0.000000 48.571451
RightHand -2.669404 -0.000000 -30.940093
RightHandThumb1 -24.326973 -0.000000 -32.862282
LeftUpLeg -13.432612 7.396278 4.551260
LeftLeg 0.919204 -0.000000 -0.000000
LeftFoot -12.476408 8.031715 -18.348123
LeftToeBase 9.721104 -0.000000 -0.000000
RightUpLeg -14.484621 -5.749132 -0.522130
RightLeg 3.614671 -0.000000 -0.000000
RightFoot -8.388360 -1.890160 -12.908827
RightToeBase -0.112794 -0.000000 0.000000
2502
root -6.107396 32.769971 -5.371083 16.024223 1.469636 -2.440224
Spine -19.753648 0.940564 0.226138
Head -8.583875 -28.649937 15.487978
LeftShoulder -4.955959 18.065724 11.213790
LeftArm 22.561922 30.481763 -73.922315
LeftForeArm -2.213011 -0.000000 20.710280
LeftHand -22.356506 0.000000 -3.975754
LeftHandThumb1 -26.253704 0.000000 33.147579
RightShoulder -16.257964 16.225894 -10.964723
RightArm -21.909534 37.677161 76.002691
RightForeArm 48.490281 0.000000 49.446762
RightHand -2.737638 -0.000000 -31.160745
RightHandThumb1 -24.326973 -0.000000 -32.862282
LeftUpLeg -13.432307 7.413569 4.553799
LeftLeg 0.925715 -0.000000 -0.000000
LeftFoot -12.492646 7.997705 -18.523842
LeftToeBase 9.694493 -0.000000 -0.000000
RightUpLeg -14.480962 -5.720971 -0.525855
RightLeg 3.605378 -0.000000 -0.000000
RightFoot -8.374388 -1.916225 -12.940305
RightToeBase -0.153139 -0.000000 0.000000
2503
root -6.106252 32.770052 -5.371030 16.026915 1.462114 -2.437533
Spine -19.763361 0.932223 0.215146
Head -8.579116 -28.662420 15.464403
LeftShoulder -4.955597 18.059954 11.183478
LeftArm 22.554140 30.519354 -73.895264
LeftForeArm -2.530270 -0.000000 20.705732
LeftHand -22.106043 -0.000000 -2.568400
LeftHandThumb1 -26.253704 0.000000 33.147579
RightShoulder -16.270787 16.213801 -10.965438
RightArm -21.942153 37.792122 75.941883
RightForeArm 48.120932 -0.000000 50.087138
RightHand -3.089244 -0.000000 -30.353733
RightHandThumb1 -24.326973 -0.000000 -32.862282
LeftUpLeg -13.431388 7.398831 4.548462
LeftLeg 0.917803 -0.000000 -0.000000
LeftFoot -12.488946 8.045541 -18.333597
LeftToeBase 9.693020 -0.000000 -0.000000
RightUpLeg -14.482349 -5.694722 -0.537945
RightLeg 3.604484 -0.000000 -0.000000
RightFoot -8.367798 -1.930516 -12.904565
RightToeBase -0.129623 -0.000000 0.000000
2504
root -6.100394 32.769770 -5.375468 16.052540 1.422935 -2.403504
Spine -19.784993 0.932602 0.171078
Head -8.593365 -28.638175 15.449694
LeftShoulder -4.969369 18.058047 11.162414
LeftArm 22.556955 30.578441 -73.872194
LeftForeArm -2.631463 0.000000 20.695411
LeftHand -22.106040 -0.000000 -2.296070
LeftHandThumb1 -26.253704 0.000000 33.147579
RightShoulder -16.253198 16.236757 -10.980342
RightArm -22.009208 37.836784 75.896212
RightForeArm 47.992420 -0.000000 50.874297
RightHand -2.763318 -0.000000 -30.793903
RightHandThumb1 -24.326973 -0.000000 -32.862282
LeftUpLeg -13.460343 7.394578 4.495477
LeftLeg 0.924574 -0.000000 -0.000000
LeftFoot -12.512961 8.092853 -18.359249
LeftToeBase 9.779309 -0.000000 -0.000000
RightUpLeg -14.530260 -5.613312 -0.603119
RightLeg 3.632907 -0.000000 -0.000000
RightFoot -8.374331 -1.978385 -12.876185
RightToeBase -0.149760 -0.000000 0.000000
2505
root -6.097512 32.769557 -5.378215 16.070127 1.395175 -2.394095
Spine -19.803995 0.948037 0.145726
Head -8.605829 -28.648119 15.445484
LeftShoulder -4.963387 18.069045 11.157082
LeftArm 22.558711 30.593953 -73.883046
LeftForeArm -2.583804 0.000000 20.665883
LeftHand -22.103807 -0.000000 -2.338504
LeftHandThumb1 -26.253704 0.000000 33.147579
RightShoulder -16.266578 16.222108 -10.994531
RightArm -22.032064 37.902523 75.862189
RightForeArm 47.871246 0.000000 51.599467
RightHand -2.272472 -0.000000 -30.616416
RightHandThumb1 -24.326973 -0.000000 -32.862282
LeftUpLeg -13.478114 7.389710 4.476158
LeftLeg 0.927262 -0.000000 -0.000000
LeftFoot -12.523302 8.134840 -18.319968
LeftToeBase 9.788834 -0.000000 -0.000000
RightUpLeg -14.561531 -5.585655 -0.624589
RightLeg 3.647656 -0.000000 -0.000000
RightFoot -8.396369 -1.964468 -12.836988
RightToeBase -0.099009 -0.000000 0.000000
2506
root -6.098554 32.769568 -5.374818 16.056808 1.354096 -2.396019
Spine -19.798915 0.976979 0.110184
Head -8.619583 -28.669813 15.475956
LeftShoulder -4.968109 18.071372 11.158919
LeftArm 22.543434 30.641112 -73.873219
LeftForeArm -2.614924 -0.000000 20.661093
LeftHand -22.123582 -0.000000 -2.368970
LeftHandThumb1 -26.253704 0.000000 33.147579
RightShoulder -16.298244 16.191803 -10.985045
RightArm -22.019803 37.891858 75.875012
RightForeArm 47.808830 -0.000000 52.396330
RightHand -2.049867 0.000000 -30.875130
RightHandThumb1 -24.326973 -0.000000 -32.862282
LeftUpLeg -13.442141 7.449742 4.465573
LeftLeg 0.903814 -0.000000 -0.000000
LeftFoot -12.483446 8.117362 -18.279691
LeftToeBase 9.681167 -0.000000 -0.000000
RightUpLeg -14.541802 -5.545629 -0.632258
RightLeg 3.638377 -0.000000 -0.000000
RightFoot -8.390912 -1.982113 -12.883450
RightToeBase -0.096499 -0.000000 0.000000
2507
root -6.099826 32.769067 -5.371866 16.044117 1.352215 -2.404078
Spine -19.794542 0.960975 0.107882
Head -8.619579 -28.670461 15.475515
LeftShoulder -4.977558 18.093125 11.167240
LeftArm 22.533985 30.689609 -73.884767
LeftForeArm -2.289931 -0.000000 20.637249
LeftHand -22.319519 -0.000000 -4.112092
LeftHandThumb1 -26.253704 0.000000 33.147579
RightShoulder -16.303644 16.159677 -11.004033
RightArm -22.028983 37.879189 75.888124
RightForeArm 47.653309 0.000000 53.132941
RightHand -2.008850 0.000000 -30.669802
RightHandThumb1 -24.326973 -0.000000 -32.862282
LeftUpLeg -13.414604 7.456378 4.476807
LeftLeg 0.883792 -0.000000 -0.000000
LeftFoot -12.474787 8.125384 -18.251907
LeftToeBase 9.629607 -0.000000 -0.000000
RightUpLeg -14.519576 -5.563577 -0.619410
RightLeg 3.625243 -0.000000 -0.000000
RightFoot -8.398678 -1.955726 -12.870478
RightToeBase -0.083690 -0.000000 0.000000
